<svg width="15" height="16" viewBox="0 0 15 16" fill="none" xmlns="http://www.w3.org/2000/svg">
<path fill-rule="evenodd" clip-rule="evenodd" d="M11.2542 0.492222C11.8467 -0.180735 12.9016 -0.160715 13.4682 0.534235L13.504 0.578199C15.2299 2.69534 15.1392 5.75872 13.2909 7.76995L8.22107 13.2868C6.44097 15.2239 3.53839 15.6291 1.29582 14.2537L0.710012 13.8944C-0.135101 13.376 -0.246401 12.1917 0.487345 11.525L1.50779 10.5978C2.34336 9.83853 3.52548 9.59326 4.59413 9.95739C5.41176 10.236 6.31658 9.98598 6.87518 9.32712L9.43527 6.30752C9.77614 5.90548 9.81242 5.32728 9.52448 4.88579C8.98667 4.06114 9.06471 2.97907 9.7153 2.24013L11.2542 0.492222ZM12.6931 1.1661C12.517 0.950035 12.189 0.943812 12.0048 1.15303L10.4658 2.90095C10.1121 3.30274 10.0697 3.89112 10.3621 4.33952C10.8916 5.15147 10.8249 6.21482 10.198 6.95421L7.63794 9.97381C6.81357 10.9461 5.47824 11.3151 4.2716 10.904C3.54747 10.6572 2.74647 10.8234 2.18028 11.3379L1.15984 12.2651C0.919268 12.4837 0.955759 12.872 1.23284 13.0419L1.81865 13.4012C3.65348 14.5266 6.02832 14.195 7.48476 12.6102L12.5546 7.0933C14.0666 5.448 14.1408 2.942 12.7289 1.21006L12.6931 1.1661Z" fill="white"/>
</svg>
