<svg width="16" height="15" viewBox="0 0 16 15" fill="none" xmlns="http://www.w3.org/2000/svg">
<mask id="mask0_7_7124" style="mask-type:alpha" maskUnits="userSpaceOnUse" x="0" y="0" width="16" height="15">
<path d="M12.6011 3.49922C12.6011 3.0007 12.1907 2.59817 11.6861 2.59817C11.1816 2.59817 10.7708 3.0007 10.7708 3.49922C10.7708 3.99591 11.1816 4.39844 11.6861 4.39844C12.1907 4.39844 12.6011 3.99591 12.6011 3.49922Z" fill="url(#paint0_linear_7_7124)"/>
<path d="M13.82 10.5303C13.7861 11.2616 13.6619 11.6589 13.5587 11.9228C13.4202 12.2727 13.2549 12.5229 12.9868 12.7853C12.7217 13.0478 12.4675 13.2101 12.1121 13.345C11.844 13.4481 11.4388 13.5707 10.6959 13.6056C9.89277 13.6404 9.65479 13.6479 7.6181 13.6479C5.5833 13.6479 5.34343 13.6404 4.54028 13.6056C3.79739 13.5707 3.39411 13.4481 3.126 13.345C2.76868 13.2101 2.51641 13.0478 2.24982 12.7853C1.98134 12.5229 1.81605 12.2727 1.67937 11.9228C1.57617 11.6589 1.45005 11.2616 1.41803 10.5303C1.37889 9.73967 1.37172 9.50171 1.37172 7.50093C1.37172 5.49606 1.37889 5.25994 1.41803 4.46933C1.45005 3.73805 1.57617 3.34108 1.67937 3.07493C1.81605 2.72542 1.98134 2.4767 2.24982 2.21428C2.51641 1.95224 2.76868 1.78951 3.126 1.65312C3.39411 1.54971 3.79739 1.42887 4.54028 1.39404C5.34343 1.35918 5.5833 1.35028 7.6181 1.35028C9.65479 1.35028 9.89277 1.35918 10.6959 1.39404C11.4388 1.42887 11.844 1.54971 12.1121 1.65312C12.4675 1.78951 12.7217 1.95224 12.9868 2.21428C13.2549 2.4767 13.4202 2.72542 13.5587 3.07493C13.6619 3.34108 13.7861 3.73805 13.82 4.46933C13.8573 5.25994 13.8663 5.49606 13.8663 7.50093C13.8663 9.50171 13.8573 9.73967 13.82 10.5303ZM15.1918 4.40781C15.1545 3.60868 15.0265 3.0627 14.8363 2.58717C14.6428 2.09382 14.3833 1.67573 13.9586 1.25763C13.5358 0.841393 13.111 0.586003 12.6099 0.393272C12.1249 0.207936 11.5721 0.0804214 10.7599 0.0455894C9.94772 0.00703239 9.68831 -9.53674e-07 7.6181 -9.53674e-07C5.54978 -9.53674e-07 5.28847 0.00703239 4.47628 0.0455894C3.66596 0.0804214 3.11358 0.207936 2.62635 0.393272C2.12706 0.586003 1.70232 0.841393 1.27948 1.25763C0.854749 1.67573 0.595305 2.09382 0.399882 2.58717C0.211604 3.0627 0.0835912 3.60868 0.044422 4.40781C0.00903689 5.20732 0 5.46307 0 7.50093C0 9.53693 0.00903689 9.79229 0.044422 10.5918C0.0835912 11.3895 0.211604 11.935 0.399882 12.4128C0.595305 12.9043 0.854749 13.3243 1.27948 13.7405C1.70232 14.1567 2.12706 14.414 2.62635 14.6064C3.11358 14.7917 3.66596 14.9177 4.47628 14.9544C5.28847 14.9911 5.54978 15 7.6181 15C9.68831 15 9.94772 14.9911 10.7599 14.9544C11.5721 14.9177 12.1249 14.7917 12.6099 14.6064C13.111 14.414 13.5358 14.1567 13.9586 13.7405C14.3833 13.3243 14.6428 12.9043 14.8363 12.4128C15.0265 11.935 15.1545 11.3895 15.1918 10.5918C15.2291 9.79229 15.2381 9.53693 15.2381 7.50093C15.2381 5.46307 15.2291 5.20732 15.1918 4.40781Z" fill="url(#paint1_linear_7_7124)"/>
<path d="M7.61811 9.99844C6.21627 9.99844 5.07875 8.88053 5.07875 7.50059C5.07875 6.11842 6.21627 4.99906 7.61811 4.99906C9.02036 4.99906 10.1594 6.11842 10.1594 7.50059C10.1594 8.88053 9.02036 9.99844 7.61811 9.99844ZM7.61811 3.64692C5.45717 3.64692 3.70703 5.3734 3.70703 7.50059C3.70703 9.62593 5.45717 11.3506 7.61811 11.3506C9.77906 11.3506 11.5311 9.62593 11.5311 7.50059C11.5311 5.3734 9.77906 3.64692 7.61811 3.64692Z" fill="url(#paint2_linear_7_7124)"/>
</mask>
<g mask="url(#mask0_7_7124)">
<rect x="-1" y="-1" width="17" height="17" fill="white"/>
</g>
<defs>
<linearGradient id="paint0_linear_7_7124" x1="0.137775" y1="14.8474" x2="13.7515" y2="1.01772" gradientUnits="userSpaceOnUse">
<stop stop-color="#FFD521"/>
<stop offset="0.05" stop-color="#FFD521"/>
<stop offset="0.501119" stop-color="#F50000"/>
<stop offset="0.95" stop-color="#B900B4"/>
<stop offset="0.950079" stop-color="#B900B4"/>
<stop offset="1" stop-color="#B900B4"/>
</linearGradient>
<linearGradient id="paint1_linear_7_7124" x1="0.137445" y1="14.8636" x2="13.7623" y2="1.02248" gradientUnits="userSpaceOnUse">
<stop stop-color="#FFD521"/>
<stop offset="0.05" stop-color="#FFD521"/>
<stop offset="0.501119" stop-color="#F50000"/>
<stop offset="0.95" stop-color="#B900B4"/>
<stop offset="0.950079" stop-color="#B900B4"/>
<stop offset="1" stop-color="#B900B4"/>
</linearGradient>
<linearGradient id="paint2_linear_7_7124" x1="0.141046" y1="14.8636" x2="13.7626" y2="1.02585" gradientUnits="userSpaceOnUse">
<stop stop-color="#FFD521"/>
<stop offset="0.05" stop-color="#FFD521"/>
<stop offset="0.501119" stop-color="#F50000"/>
<stop offset="0.95" stop-color="#B900B4"/>
<stop offset="0.950079" stop-color="#B900B4"/>
<stop offset="1" stop-color="#B900B4"/>
</linearGradient>
</defs>
</svg>
