<svg width="13" height="17" viewBox="0 0 13 17" fill="none" xmlns="http://www.w3.org/2000/svg">
<path fill-rule="evenodd" clip-rule="evenodd" d="M10.853 8.99939C11.3325 7.88341 11.5907 6.93042 11.5907 6.25596C11.5907 3.30968 9.20224 0.921255 6.25596 0.921255C3.30968 0.921255 0.921255 3.30968 0.921255 6.25596C0.921255 6.93042 1.17944 7.88341 1.65897 8.99939C2.12911 10.0936 2.77473 11.2599 3.46331 12.3323C4.15246 13.4056 4.86918 14.3606 5.47137 15.0363C5.77453 15.3765 6.03074 15.6255 6.22578 15.7815C6.23623 15.7899 6.24629 15.7978 6.25596 15.8053C6.26563 15.7978 6.27569 15.7899 6.28615 15.7815C6.48118 15.6255 6.7374 15.3765 7.04055 15.0363C7.64275 14.3606 8.35947 13.4056 9.04861 12.3323C9.7372 11.2599 10.3828 10.0936 10.853 8.99939ZM6.25596 16.8129C7.42896 16.8129 12.5119 9.71103 12.5119 6.25596C12.5119 2.80089 9.71103 0 6.25596 0C2.80089 0 0 2.80089 0 6.25596C0 9.71103 5.08297 16.8129 6.25596 16.8129Z" fill="white"/>
<path fill-rule="evenodd" clip-rule="evenodd" d="M6.06041 8.46275C7.17118 8.46275 8.07164 7.5623 8.07164 6.45153C8.07164 5.34075 7.17118 4.4403 6.06041 4.4403C4.94964 4.4403 4.04918 5.34075 4.04918 6.45153C4.04918 7.5623 4.94964 8.46275 6.06041 8.46275ZM6.06041 9.38401C7.67998 9.38401 8.99289 8.07109 8.99289 6.45153C8.99289 4.83196 7.67998 3.51904 6.06041 3.51904C4.44085 3.51904 3.12793 4.83196 3.12793 6.45153C3.12793 8.07109 4.44085 9.38401 6.06041 9.38401Z" fill="white"/>
</svg>
