<svg width="51" height="156" viewBox="0 0 51 156" fill="none" xmlns="http://www.w3.org/2000/svg">
<path opacity="0.1" d="M38.849 135.107C41.007 135.107 42.892 135.939 44.504 137.603C46.09 139.267 47 141.425 47.234 144.077H50.393V146.378H47.234C47.052 149.238 46.233 151.5 44.777 153.164C43.295 154.828 41.28 155.66 38.732 155.66V148.562C40.474 148.406 41.514 147.678 41.852 146.378H35.729C35.443 147.574 35.105 148.731 34.715 149.849C34.325 150.941 34.039 151.63 33.857 151.916C33.675 152.202 33.428 152.592 33.116 153.086C32.804 153.554 32.479 153.918 32.141 154.178C31.803 154.412 31.413 154.672 30.971 154.958C30.191 155.426 29.086 155.66 27.656 155.66C25.29 155.66 23.366 154.776 21.884 153.008C20.376 151.24 19.505 149.03 19.271 146.378H16.112V144.077H19.271C19.427 141.347 20.181 139.189 21.533 137.603C22.859 136.017 24.874 135.185 27.578 135.107V141.971C26.148 142.127 25.186 142.829 24.692 144.077H30.854C31.582 141.477 32.141 139.774 32.531 138.968C33.831 136.394 35.937 135.107 38.849 135.107ZM24.614 146.378C24.9 147.886 25.719 148.64 27.071 148.64C28.423 148.64 29.424 147.886 30.074 146.378H24.614ZM41.852 144.077C41.488 142.777 40.682 142.127 39.434 142.127C38.186 142.127 37.237 142.777 36.587 144.077H41.852ZM47 126.821L12.838 126.821V134.323H2.98L2.98 115.847L47 115.847L47 126.821ZM29.764 90.3098H14.388L29.764 100.106V90.3098ZM47 91.0538H38.94L38.94 111.886H30.384L2.36 92.2938L2.36 80.4517L29.764 80.4517L29.764 75.3678H38.94L38.94 80.4517H47V91.0538ZM41.234 64.1608C42.846 64.1608 44.21 64.7188 45.326 65.8348C46.442 66.9508 47 68.3354 47 69.9888C47 71.6008 46.442 72.9648 45.326 74.0808C44.21 75.1968 42.846 75.7548 41.234 75.7548C39.5807 75.7548 38.196 75.1968 37.08 74.0808C35.964 72.9648 35.406 71.6008 35.406 69.9888C35.406 68.3354 35.964 66.9508 37.08 65.8348C38.196 64.7188 39.5807 64.1608 41.234 64.1608ZM15.566 52.8249C17.2193 52.8249 18.6453 52.3496 19.844 51.3989C21.0013 50.4069 21.58 48.9809 21.58 47.1209C21.58 45.2196 21.0633 43.7729 20.03 42.7809C18.9553 41.7476 17.4673 41.2309 15.566 41.2309C13.6233 41.2309 12.1353 41.7476 11.102 42.7809C10.0273 43.8143 9.49 45.2403 9.49 47.0589C9.49 48.8776 10.0893 50.3036 11.288 51.3369C12.4453 52.3289 13.8713 52.8249 15.566 52.8249ZM38.32 46.3769C38.32 44.2689 37.4933 42.7396 35.84 41.7889C34.1453 40.8383 31.376 40.3629 27.532 40.3629C28.276 41.1483 28.9167 42.3056 29.454 43.8349C29.9913 45.3643 30.26 46.9763 30.26 48.6709C30.26 53.0109 29.082 56.4829 26.726 59.0869C24.37 61.6909 20.836 62.9929 16.124 62.9929C11.3707 62.9929 7.63 61.6083 4.902 58.8389C2.174 56.0696 0.809996 52.2876 0.809996 47.4929C0.809996 41.0449 2.918 36.6223 7.134 34.2249C9.242 33.0676 11.6393 32.2409 14.326 31.7449C16.9713 31.2489 20.03 31.0009 23.502 31.0009C26.9327 31.0009 29.7847 31.1456 32.058 31.4349C34.3313 31.6829 36.46 32.1789 38.444 32.9229C40.3867 33.6256 41.9573 34.5763 43.156 35.7749C45.7187 38.2549 47 42.0163 47 47.0589C47 52.0603 45.6773 55.7596 43.032 58.1569C40.3867 60.5543 37.08 61.7943 33.112 61.8769V52.0189C36.584 51.5229 38.32 49.6423 38.32 46.3769ZM2.298 29.9024L2.298 0.018374H10.11L47 16.1384V27.6084L10.978 10.6824L10.978 29.9024H2.298Z" fill="#2A333E"/>
</svg>
